<?xml version="1.0" encoding="utf-8"?>
<!-- Generator: Adobe Illustrator 18.1.1, SVG Export Plug-In . SVG Version: 6.00 Build 0)  -->
<svg version="1.1" id="Ebene_1" xmlns="http://www.w3.org/2000/svg" xmlns:xlink="http://www.w3.org/1999/xlink" x="0px" y="0px"
	 viewBox="0 0 413.4 413.4" enable-background="new 0 0 413.4 413.4" xml:space="preserve">
<polygon display="none" opacity="0.65" fill="#002144" points="718.7,208.2 467.7,-42.8 -40.9,465.8 212,718.7 718.7,718.7 "/>
<circle display="none" fill="#1F4788" cx="206.7" cy="206.7" r="360"/>
<g display="none">
	<rect x="-40" y="161.9" display="inline" fill="none" width="498" height="107.8"/>
	
		<text transform="matrix(1 0 0 1 61.7333 234.5136)" display="inline" fill="#FFFFFF" font-family="'DINCondensed-Bold'" font-size="102">Refugees</text>
	<rect x="-40" y="264.1" display="inline" fill="none" width="498" height="107.8"/>
	
		<text transform="matrix(1 0 0 1 63.6195 336.7722)" display="inline" fill="#FFFFFF" font-family="'DINCondensed-Bold'" font-size="102">Welcome</text>
	<g display="inline">
		<rect x="203.5" y="65.6" fill="#FFFFFF" width="11" height="73.1"/>
		<rect x="172.4" y="96.6" fill="#FFFFFF" width="73.1" height="11"/>
		<circle fill="none" stroke="#FFFFFF" stroke-width="8" stroke-miterlimit="10" cx="209.4" cy="102.6" r="48.7"/>
	</g>
</g>
<g>
	<g>
		
			<image overflow="visible" opacity="0.62" width="250" height="249" xlink:href="2EA38DDED0C0F09.png"  transform="matrix(1 0 0 1 62.6913 -17.3087)">
		</image>
		<g>
			<path d="M272.7,126.5l-66.1,66.1l-91-91c-18.2-18.2-18.2-47.8,0-66.1l0,0c18.2-18.2,47.8-18.2,66.1,0L272.7,126.5z"/>
		</g>
	</g>
	<g>
		
			<image overflow="visible" opacity="0.62" width="250" height="249" xlink:href="2EA38DDED0C0F0B.png"  transform="matrix(1 0 0 1 101.6913 -16.3087)">
		</image>
		<g>
			<path d="M207.1,193.6L141,127.5l91-91c18.2-18.2,47.8-18.2,66.1,0l0,0c18.2,18.2,18.2,47.8,0,66.1L207.1,193.6z"/>
		</g>
	</g>
	<g>
		
			<image overflow="visible" opacity="0.62" width="250" height="250" xlink:href="2EA38DDED0C0F0E.png"  transform="matrix(1 0 0 1 -16.3087 61.6913)">
		</image>
		<g>
			<path fill="#FF3333" d="M193.7,206L127.6,272l-91-91c-18.2-18.2-18.2-47.8,0-66.1l0,0c18.2-18.2,47.8-18.2,66.1,0L193.7,206z"/>
		</g>
	</g>
	<g>
		
			<image overflow="visible" opacity="0.62" width="250" height="250" xlink:href="2EA38DDED0C0F0F.png"  transform="matrix(1 0 0 1 -16.3087 100.6913)">
		</image>
		<g>
			<path fill="#FF3333" d="M127.6,140.4l66.1,66.1l-91,91c-18.2,18.2-47.8,18.2-66.1,0l0,0c-18.2-18.2-18.2-47.8,0-66.1L127.6,140.4
				z"/>
		</g>
	</g>
	<g>
		
			<image overflow="visible" opacity="0.62" width="250" height="249" xlink:href="2EA38DDED0C0F0A.png"  transform="matrix(1 0 0 1 100.6913 181.6913)">
		</image>
		<g>
			<path fill="#FFD215" d="M140.7,286.9l66.1-66.1l91,91c18.2,18.2,18.2,47.8,0,66.1l0,0c-18.2,18.2-47.8,18.2-66.1,0L140.7,286.9z"
				/>
		</g>
	</g>
	<g>
		
			<image overflow="visible" opacity="0.62" width="250" height="249" xlink:href="2EA38DDED0C0F05.png"  transform="matrix(1 0 0 1 61.6913 180.6913)">
		</image>
		<g>
			<path fill="#FFD215" d="M206.3,219.8l66.1,66.1l-91,91c-18.2,18.2-47.8,18.2-66.1,0l0,0c-18.2-18.2-18.2-47.8,0-66.1L206.3,219.8
				z"/>
		</g>
	</g>
	<g>
		
			<image overflow="visible" opacity="0.62" width="250" height="250" xlink:href="2EA38DDED0C0F06.png"  transform="matrix(1 0 0 1 179.6913 101.6913)">
		</image>
		<g>
			<path fill="#FF3333" d="M219.7,207.4l66.1-66.1l91,91c18.2,18.2,18.2,47.8,0,66.1l0,0c-18.2,18.2-47.8,18.2-66.1,0L219.7,207.4z"
				/>
		</g>
	</g>
	<g>
		
			<image overflow="visible" opacity="0.62" width="250" height="250" xlink:href="2EA38DDED0C0F07.png"  transform="matrix(1 0 0 1 178.6913 62.6913)">
		</image>
		<g>
			<path fill="#FF3333" d="M284.8,273l-66.1-66.1l91-91c18.2-18.2,47.8-18.2,66.1,0l0,0c18.2,18.2,18.2,47.8,0,66.1L284.8,273z"/>
		</g>
	</g>
</g>
</svg>
